<?xml version="1.0" encoding="UTF-8" standalone="no"?>
<!DOCTYPE svg PUBLIC "-//W3C//DTD SVG 1.1//EN"
 "http://www.w3.org/Graphics/SVG/1.1/DTD/svg11.dtd">
<!-- Generated by graphviz version 13.0.0 (20250608.1624)
 -->
<!-- Pages: 1 -->
<svg width="412pt" height="241pt"
 viewBox="0.00 0.00 412.00 241.00" xmlns="http://www.w3.org/2000/svg" xmlns:xlink="http://www.w3.org/1999/xlink">
<g id="graph0" class="graph" transform="scale(1 1) rotate(0) translate(4 236.5)">
<polygon fill="white" stroke="none" points="-4,4 -4,-236.5 408.38,-236.5 408.38,4 -4,4"/>
<!-- 1 -->
<g id="node1" class="node">
<title>1</title>
<ellipse fill="none" stroke="black" cx="27" cy="-214.5" rx="27" ry="18"/>
<text xml:space="preserve" text-anchor="middle" x="27" y="-209.45" font-family="Times,serif" font-size="14.00">1</text>
</g>
<!-- 5 -->
<g id="node2" class="node">
<title>5</title>
<ellipse fill="red" stroke="black" cx="70" cy="-106.5" rx="27" ry="18"/>
<text xml:space="preserve" text-anchor="middle" x="70" y="-101.45" font-family="Times,serif" font-size="14.00">5</text>
</g>
<!-- 1&#45;&#45;5 -->
<g id="edge1" class="edge">
<title>1&#45;&#45;5</title>
<path fill="none" stroke="green" stroke-width="5" d="M18.9,-197C12.75,-181.93 6.77,-159.49 16,-142.5 22.56,-130.43 35.28,-121.88 46.73,-116.25"/>
<text xml:space="preserve" text-anchor="middle" x="64" y="-155.45" font-family="Times,serif" font-size="14.00">0.1 Mbps 0.001 s</text>
</g>
<!-- 6 -->
<g id="node5" class="node">
<title>6</title>
<ellipse fill="red" stroke="black" cx="142" cy="-18" rx="27" ry="18"/>
<text xml:space="preserve" text-anchor="middle" x="142" y="-12.95" font-family="Times,serif" font-size="14.00">6</text>
</g>
<!-- 5&#45;&#45;6 -->
<g id="edge5" class="edge">
<title>5&#45;&#45;6</title>
<path fill="none" stroke="green" stroke-width="5" d="M81.18,-89.84C88.76,-79.45 99.15,-65.65 109,-54 114.82,-47.11 121.61,-39.81 127.5,-33.66"/>
<text xml:space="preserve" text-anchor="middle" x="157" y="-57.2" font-family="Times,serif" font-size="14.00">0.1 Mbps 0.001 s</text>
</g>
<!-- 2 -->
<g id="node3" class="node">
<title>2</title>
<ellipse fill="none" stroke="black" cx="122" cy="-214.5" rx="27" ry="18"/>
<text xml:space="preserve" text-anchor="middle" x="122" y="-209.45" font-family="Times,serif" font-size="14.00">2</text>
</g>
<!-- 2&#45;&#45;5 -->
<g id="edge2" class="edge">
<title>2&#45;&#45;5</title>
<path fill="none" stroke="green" stroke-width="5" d="M122.95,-196.05C123,-180.96 121.2,-159.03 112,-142.5 106.74,-133.05 97.83,-125.07 89.57,-119.13"/>
<text xml:space="preserve" text-anchor="middle" x="170.03" y="-155.45" font-family="Times,serif" font-size="14.00">0.1 Mbps 0.001 s</text>
</g>
<!-- 3 -->
<g id="node4" class="node">
<title>3</title>
<ellipse fill="none" stroke="black" cx="262" cy="-160.5" rx="27" ry="18"/>
<text xml:space="preserve" text-anchor="middle" x="262" y="-155.45" font-family="Times,serif" font-size="14.00">3</text>
</g>
<!-- 3&#45;&#45;6 -->
<g id="edge3" class="edge">
<title>3&#45;&#45;6</title>
<path fill="none" stroke="green" stroke-width="5" d="M239.4,-150.11C219.07,-141.43 191.96,-129.2 189,-124.5 180.48,-110.96 183.31,-103.46 189,-88.5 192.8,-78.5 201.2,-80.5 205,-70.5 207.61,-63.65 208.72,-60.32 205,-54 196.75,-39.98 180.63,-31.17 166.77,-25.9"/>
<text xml:space="preserve" text-anchor="middle" x="237" y="-101.45" font-family="Times,serif" font-size="14.00">0.1 Mbps 0.001 s</text>
</g>
<!-- 4 -->
<g id="node6" class="node">
<title>4</title>
<ellipse fill="none" stroke="black" cx="321" cy="-160.5" rx="27" ry="18"/>
<text xml:space="preserve" text-anchor="middle" x="321" y="-155.45" font-family="Times,serif" font-size="14.00">4</text>
</g>
<!-- 4&#45;&#45;6 -->
<g id="edge4" class="edge">
<title>4&#45;&#45;6</title>
<path fill="none" stroke="green" stroke-width="5" d="M315.73,-142.51C310.17,-126.89 300.1,-103.89 285,-88.5 251.65,-54.52 198.31,-34.78 167.07,-25.51"/>
<text xml:space="preserve" text-anchor="middle" x="356.38" y="-101.45" font-family="Times,serif" font-size="14.00">0.1 Mbps 0.001 s</text>
</g>
</g>
</svg>
