<?xml version="1.0" encoding="UTF-8" standalone="no"?>
<!DOCTYPE svg PUBLIC "-//W3C//DTD SVG 1.1//EN"
 "http://www.w3.org/Graphics/SVG/1.1/DTD/svg11.dtd">
<!-- Generated by graphviz version 13.0.0 (20250608.1624)
 -->
<!-- Pages: 1 -->
<svg width="554pt" height="133pt"
 viewBox="0.00 0.00 554.00 133.00" xmlns="http://www.w3.org/2000/svg" xmlns:xlink="http://www.w3.org/1999/xlink">
<g id="graph0" class="graph" transform="scale(1 1) rotate(0) translate(4 128.5)">
<polygon fill="white" stroke="none" points="-4,4 -4,-128.5 550.26,-128.5 550.26,4 -4,4"/>
<!-- 3 -->
<g id="node1" class="node">
<title>3</title>
<ellipse fill="none" stroke="black" cx="27" cy="-106.5" rx="27" ry="18"/>
<text xml:space="preserve" text-anchor="middle" x="27" y="-101.45" font-family="Times,serif" font-size="14.00">3</text>
</g>
<!-- 6 -->
<g id="node2" class="node">
<title>6</title>
<ellipse fill="red" stroke="black" cx="45" cy="-18" rx="27" ry="18"/>
<text xml:space="preserve" text-anchor="middle" x="45" y="-12.95" font-family="Times,serif" font-size="14.00">6</text>
</g>
<!-- 3&#45;&#45;6 -->
<g id="edge1" class="edge">
<title>3&#45;&#45;6</title>
<path fill="none" stroke="green" stroke-width="5" d="M13.75,-90.55C6.28,-80.23 -0.54,-66.22 5,-54 9.27,-44.59 17.46,-36.71 25.32,-30.83"/>
<text xml:space="preserve" text-anchor="middle" x="53" y="-57.2" font-family="Times,serif" font-size="14.00">0.1 Mbps 0.001 s</text>
</g>
<!-- 4 -->
<g id="node3" class="node">
<title>4</title>
<ellipse fill="none" stroke="black" cx="111" cy="-106.5" rx="27" ry="18"/>
<text xml:space="preserve" text-anchor="middle" x="111" y="-101.45" font-family="Times,serif" font-size="14.00">4</text>
</g>
<!-- 4&#45;&#45;6 -->
<g id="edge2" class="edge">
<title>4&#45;&#45;6</title>
<path fill="none" stroke="green" stroke-width="5" d="M111.06,-88.41C110.33,-77.7 107.91,-64.06 101,-54 92.95,-42.28 79.56,-33.7 67.89,-27.97"/>
<text xml:space="preserve" text-anchor="middle" x="155.94" y="-57.2" font-family="Times,serif" font-size="14.00">0.1 Mbps 0.001 s</text>
</g>
<!-- 5 -->
<g id="node4" class="node">
<title>5</title>
<ellipse fill="red" stroke="black" cx="212" cy="-106.5" rx="27" ry="18"/>
<text xml:space="preserve" text-anchor="middle" x="212" y="-101.45" font-family="Times,serif" font-size="14.00">5</text>
</g>
<!-- 5&#45;&#45;6 -->
<g id="edge4" class="edge">
<title>5&#45;&#45;6</title>
<path fill="none" stroke="green" stroke-width="5" d="M215.48,-88.21C216.65,-77.14 216.03,-63.18 208,-54 199.05,-43.76 115.34,-29.68 71.5,-22.93"/>
<text xml:space="preserve" text-anchor="middle" x="263.12" y="-57.2" font-family="Times,serif" font-size="14.00">0.1 Mbps 0.001 s</text>
</g>
<!-- 2 -->
<g id="node5" class="node">
<title>2</title>
<ellipse fill="none" stroke="black" cx="200" cy="-18" rx="27" ry="18"/>
<text xml:space="preserve" text-anchor="middle" x="200" y="-12.95" font-family="Times,serif" font-size="14.00">2</text>
</g>
<!-- 5&#45;&#45;2 -->
<g id="edge3" class="edge">
<title>5&#45;&#45;2</title>
<path fill="none" stroke="green" stroke-width="5" d="M239.22,-104.05C284.25,-100.64 366.64,-89.47 339,-54 325.35,-36.48 263.15,-26.38 226.75,-21.86"/>
<text xml:space="preserve" text-anchor="middle" x="392.54" y="-57.2" font-family="Times,serif" font-size="14.00">0.1 Mbps 0.001 s</text>
</g>
<!-- 1 -->
<g id="node6" class="node">
<title>1</title>
<ellipse fill="none" stroke="black" cx="438" cy="-18" rx="27" ry="18"/>
<text xml:space="preserve" text-anchor="middle" x="438" y="-12.95" font-family="Times,serif" font-size="14.00">1</text>
</g>
<!-- 5&#45;&#45;1 -->
<g id="edge5" class="edge">
<title>5&#45;&#45;1</title>
<path fill="none" stroke="green" stroke-width="5" d="M239.23,-105.65C294.9,-105.3 418.71,-101.03 445,-70.5 453.24,-60.93 450.38,-46.42 446.09,-35.24"/>
<text xml:space="preserve" text-anchor="middle" x="498.26" y="-57.2" font-family="Times,serif" font-size="14.00">0.1 Mbps 0.001 s</text>
</g>
</g>
</svg>
