<?xml version="1.0" encoding="UTF-8" standalone="no"?>
<!DOCTYPE svg PUBLIC "-//W3C//DTD SVG 1.1//EN"
 "http://www.w3.org/Graphics/SVG/1.1/DTD/svg11.dtd">
<!-- Generated by graphviz version 13.0.0 (20250608.1624)
 -->
<!-- Pages: 1 -->
<svg width="425pt" height="329pt"
 viewBox="0.00 0.00 425.00 329.00" xmlns="http://www.w3.org/2000/svg" xmlns:xlink="http://www.w3.org/1999/xlink">
<g id="graph0" class="graph" transform="scale(1 1) rotate(0) translate(4 325)">
<polygon fill="white" stroke="none" points="-4,4 -4,-325 420.56,-325 420.56,4 -4,4"/>
<!-- 5 -->
<g id="node1" class="node">
<title>5</title>
<ellipse fill="red" stroke="black" cx="56.37" cy="-303" rx="27" ry="18"/>
<text xml:space="preserve" text-anchor="middle" x="56.37" y="-297.95" font-family="Times,serif" font-size="14.00">5</text>
</g>
<!-- 8 -->
<g id="node2" class="node">
<title>8</title>
<ellipse fill="red" stroke="black" cx="32.37" cy="-18" rx="27" ry="18"/>
<text xml:space="preserve" text-anchor="middle" x="32.37" y="-12.95" font-family="Times,serif" font-size="14.00">8</text>
</g>
<!-- 5&#45;&#45;8 -->
<g id="edge1" class="edge">
<title>5&#45;&#45;8</title>
<path fill="none" stroke="green" stroke-width="5" d="M46.94,-285.92C34.09,-263 11.73,-219.18 3.37,-178.5 -7.28,-126.67 13.35,-64.95 25.06,-35.81"/>
<text xml:space="preserve" text-anchor="middle" x="51.37" y="-155.45" font-family="Times,serif" font-size="14.00">0.1 Mbps 0.001 s</text>
</g>
<!-- 1 -->
<g id="node3" class="node">
<title>1</title>
<ellipse fill="none" stroke="black" cx="135.37" cy="-160.5" rx="27" ry="18"/>
<text xml:space="preserve" text-anchor="middle" x="135.37" y="-155.45" font-family="Times,serif" font-size="14.00">1</text>
</g>
<!-- 5&#45;&#45;1 -->
<g id="edge2" class="edge">
<title>5&#45;&#45;1</title>
<path fill="none" stroke="green" stroke-width="5" d="M64.28,-285.61C69.29,-275.42 76.01,-262.09 82.37,-250.5 96.66,-224.49 114.54,-195.04 125.46,-177.38"/>
<text xml:space="preserve" text-anchor="middle" x="130.37" y="-253.7" font-family="Times,serif" font-size="14.00">0.1 Mbps 0.001 s</text>
</g>
<!-- 6 -->
<g id="node4" class="node">
<title>6</title>
<ellipse fill="red" stroke="black" cx="165.37" cy="-214.5" rx="27" ry="18"/>
<text xml:space="preserve" text-anchor="middle" x="165.37" y="-209.45" font-family="Times,serif" font-size="14.00">6</text>
</g>
<!-- 5&#45;&#45;6 -->
<g id="edge3" class="edge">
<title>5&#45;&#45;6</title>
<path fill="none" stroke="green" stroke-width="5" d="M82.91,-298.41C116.19,-293.3 170.38,-282.77 182.37,-267 190.46,-256.36 184.35,-241.67 177.29,-230.71"/>
<text xml:space="preserve" text-anchor="middle" x="234.21" y="-253.7" font-family="Times,serif" font-size="14.00">0.1 Mbps 0.001 s</text>
</g>
<!-- 7 -->
<g id="node5" class="node">
<title>7</title>
<ellipse fill="red" stroke="black" cx="208.37" cy="-106.5" rx="27" ry="18"/>
<text xml:space="preserve" text-anchor="middle" x="208.37" y="-101.45" font-family="Times,serif" font-size="14.00">7</text>
</g>
<!-- 5&#45;&#45;7 -->
<g id="edge4" class="edge">
<title>5&#45;&#45;7</title>
<path fill="none" stroke="green" stroke-width="5" d="M83.73,-301.73C138.39,-300.6 258.3,-294.91 286.37,-267 325.86,-227.74 331.98,-188.34 300.37,-142.5 285.82,-121.4 256.74,-113.01 235.14,-109.68"/>
<text xml:space="preserve" text-anchor="middle" x="368.56" y="-209.45" font-family="Times,serif" font-size="14.00">0.1 Mbps 0.001 s</text>
</g>
<!-- 6&#45;&#45;8 -->
<g id="edge6" class="edge">
<title>6&#45;&#45;8</title>
<path fill="none" stroke="green" stroke-width="5" stroke-dasharray="5,2" d="M170.28,-196.52C173.74,-180.68 175.81,-157.34 163.37,-142.5 138.01,-112.24 106.83,-149.63 76.37,-124.5 49.12,-102.02 38.49,-59.8 34.55,-36.15"/>
<text xml:space="preserve" text-anchor="middle" x="124.37" y="-101.45" font-family="Times,serif" font-size="14.00">0.1 Mbps 0.001 s</text>
</g>
<!-- 6&#45;&#45;7 -->
<g id="edge5" class="edge">
<title>6&#45;&#45;7</title>
<path fill="none" stroke="green" stroke-width="5" stroke-dasharray="5,2" d="M176.98,-198.07C181.02,-192.17 185.29,-185.25 188.37,-178.5 196.4,-160.91 201.91,-139.37 205.09,-124.66"/>
<text xml:space="preserve" text-anchor="middle" x="248.3" y="-155.45" font-family="Times,serif" font-size="14.00">0.1 Mbps 0.001 s</text>
</g>
<!-- 7&#45;&#45;8 -->
<g id="edge7" class="edge">
<title>7&#45;&#45;8</title>
<path fill="none" stroke="green" stroke-width="5" stroke-dasharray="5,2" d="M186.31,-95.94C179.66,-93.29 172.29,-90.58 165.37,-88.5 127.97,-77.28 113.28,-89.86 79.37,-70.5 71.17,-65.82 55.51,-47.72 44.53,-34.29"/>
<text xml:space="preserve" text-anchor="middle" x="127.37" y="-57.2" font-family="Times,serif" font-size="14.00">0.1 Mbps 0.001 s</text>
</g>
<!-- 2 -->
<g id="node6" class="node">
<title>2</title>
<ellipse fill="none" stroke="black" cx="150.37" cy="-18" rx="27" ry="18"/>
<text xml:space="preserve" text-anchor="middle" x="150.37" y="-12.95" font-family="Times,serif" font-size="14.00">2</text>
</g>
<!-- 7&#45;&#45;2 -->
<g id="edge8" class="edge">
<title>7&#45;&#45;2</title>
<path fill="none" stroke="green" stroke-width="5" d="M200.2,-89.28C194.74,-78.91 187.16,-65.33 179.37,-54 174.63,-47.11 168.84,-39.92 163.69,-33.87"/>
<text xml:space="preserve" text-anchor="middle" x="237.77" y="-57.2" font-family="Times,serif" font-size="14.00">0.1 Mbps 0.001 s</text>
</g>
</g>
</svg>
