<?xml version="1.0" encoding="UTF-8" standalone="no"?>
<!DOCTYPE svg PUBLIC "-//W3C//DTD SVG 1.1//EN"
 "http://www.w3.org/Graphics/SVG/1.1/DTD/svg11.dtd">
<!-- Generated by graphviz version 13.0.0 (20250608.1624)
 -->
<!-- Pages: 1 -->
<svg width="436pt" height="133pt"
 viewBox="0.00 0.00 436.00 133.00" xmlns="http://www.w3.org/2000/svg" xmlns:xlink="http://www.w3.org/1999/xlink">
<g id="graph0" class="graph" transform="scale(1 1) rotate(0) translate(4 128.5)">
<polygon fill="white" stroke="none" points="-4,4 -4,-128.5 432.32,-128.5 432.32,4 -4,4"/>
<!-- 3 -->
<g id="node1" class="node">
<title>3</title>
<ellipse fill="none" stroke="black" cx="27" cy="-106.5" rx="27" ry="18"/>
<text xml:space="preserve" text-anchor="middle" x="27" y="-101.45" font-family="Times,serif" font-size="14.00">3</text>
</g>
<!-- 6 -->
<g id="node2" class="node">
<title>6</title>
<ellipse fill="red" stroke="black" cx="31" cy="-18" rx="27" ry="18"/>
<text xml:space="preserve" text-anchor="middle" x="31" y="-12.95" font-family="Times,serif" font-size="14.00">6</text>
</g>
<!-- 3&#45;&#45;6 -->
<g id="edge1" class="edge">
<title>3&#45;&#45;6</title>
<path fill="none" stroke="green" stroke-width="5" d="M14.29,-90.44C7.32,-80.3 0.85,-66.55 5,-54 7.42,-46.67 12.04,-39.62 16.73,-33.8"/>
<text xml:space="preserve" text-anchor="middle" x="53" y="-57.2" font-family="Times,serif" font-size="14.00">0.1 Mbps 0.001 s</text>
</g>
<!-- 4 -->
<g id="node3" class="node">
<title>4</title>
<ellipse fill="none" stroke="black" cx="111" cy="-106.5" rx="27" ry="18"/>
<text xml:space="preserve" text-anchor="middle" x="111" y="-101.45" font-family="Times,serif" font-size="14.00">4</text>
</g>
<!-- 4&#45;&#45;6 -->
<g id="edge2" class="edge">
<title>4&#45;&#45;6</title>
<path fill="none" stroke="green" stroke-width="5" d="M111.38,-88.18C110.77,-77.37 108.38,-63.72 101,-54 89.99,-39.5 71.33,-30.59 56.04,-25.39"/>
<text xml:space="preserve" text-anchor="middle" x="156.32" y="-57.2" font-family="Times,serif" font-size="14.00">0.1 Mbps 0.001 s</text>
</g>
<!-- 5 -->
<g id="node4" class="node">
<title>5</title>
<ellipse fill="red" stroke="black" cx="212" cy="-106.5" rx="27" ry="18"/>
<text xml:space="preserve" text-anchor="middle" x="212" y="-101.45" font-family="Times,serif" font-size="14.00">5</text>
</g>
<!-- 1 -->
<g id="node5" class="node">
<title>1</title>
<ellipse fill="none" stroke="black" cx="156" cy="-18" rx="27" ry="18"/>
<text xml:space="preserve" text-anchor="middle" x="156" y="-12.95" font-family="Times,serif" font-size="14.00">1</text>
</g>
<!-- 5&#45;&#45;1 -->
<g id="edge3" class="edge">
<title>5&#45;&#45;1</title>
<path fill="none" stroke="green" stroke-width="5" d="M219.76,-89.14C223.63,-78.46 226.28,-64.58 220,-54 211.54,-39.73 194.98,-30.9 180.82,-25.68"/>
<text xml:space="preserve" text-anchor="middle" x="271.75" y="-57.2" font-family="Times,serif" font-size="14.00">0.1 Mbps 0.001 s</text>
</g>
<!-- 2 -->
<g id="node6" class="node">
<title>2</title>
<ellipse fill="none" stroke="black" cx="334" cy="-18" rx="27" ry="18"/>
<text xml:space="preserve" text-anchor="middle" x="334" y="-12.95" font-family="Times,serif" font-size="14.00">2</text>
</g>
<!-- 5&#45;&#45;2 -->
<g id="edge4" class="edge">
<title>5&#45;&#45;2</title>
<path fill="none" stroke="green" stroke-width="5" d="M239.24,-104.59C264.91,-102.2 302.54,-94.49 324,-70.5 332.26,-61.27 334.57,-47.31 334.91,-36.25"/>
<text xml:space="preserve" text-anchor="middle" x="380.32" y="-57.2" font-family="Times,serif" font-size="14.00">0.1 Mbps 0.001 s</text>
</g>
</g>
</svg>
